# xmcd
# 
# Track frame offsets:
#	150
#	11887
#	26862
#	39700
#	50950
#	68675
#	85712
#	99325
#	115537
#	129350
#	144562
#	153662
#	173325
#	186937
#	198975
#
# Disc length: 2812 seconds
#
# Revision: 1
# Processed by: cddbd v1.4PL0 Copyright (c) Steve Scherf et al.
# Submitted via: Audio-CD-Archiv 2.10.441
#
DISCID=c80afa0f
DTITLE=Various Artist - Country 2000
DYEAR=1900
DGENRE=country
TTITLE0=Johnny Cash - Ring Of Fire
TTITLE1=Mary Chapin Carpenter - Passionate Kisses
TTITLE2=Lynn Anderson - Rose Garden
TTITLE3=Willie Nelson - On The Road Again
TTITLE4=Billy Swan - I Can Help
TTITLE5=Ray Price - For The Good Times
TTITLE6=Merle Haggard - That´s The Way Love Goes
TTITLE7=Charlie Daniels Band - The Devil Went Down To Georgia
TTITLE8=Barbara Fairchild - Teddy Bear Song
TTITLE9=Patty Loveless - You Can Feel Bad
TTITLE10=Frankie Laine - Rawhide
TTITLE11=Marty Robbins - El Paso
TTITLE12=Tanya Tucker - Blood Red And Goin´Down
TTITLE13=Tammy Wynette - Stand By Your Man
TTITLE14=Charlie Rich - The Most Beautiful Girl
EXTD=
EXTT0=
EXTT1=
EXTT2=
EXTT3=
EXTT4=
EXTT5=
EXTT6=
EXTT7=
EXTT8=
EXTT9=
EXTT10=
EXTT11=
EXTT12=
EXTT13=
EXTT14=
PLAYORDER=
